<?xml version="1.0" encoding="UTF-8"?>
<svg version="1.1" xmlns="http://www.w3.org/2000/svg" width="175" height="116">
<path d="M0 0 C0.69480469 0.58136719 1.38960937 1.16273437 2.10546875 1.76171875 C3.03359375 2.42171875 3.96171875 3.08171875 4.91796875 3.76171875 C13.15540185 10.80717186 18.19410496 20.86426776 22.10546875 30.76171875 C22.37359375 30.02308594 22.64171875 29.28445312 22.91796875 28.5234375 C25.96472423 20.63594882 29.71727846 14.26404464 35.10546875 7.76171875 C35.77707031 6.81683594 36.44867188 5.87195313 37.140625 4.8984375 C39.72544121 1.82127534 41.34421783 0.24642306 45.10546875 -1.23828125 C52.47874897 -0.93739306 60.50854435 1.46325655 67.10546875 4.76171875 C67.10546875 5.42171875 67.10546875 6.08171875 67.10546875 6.76171875 C65.52958984 7.50615234 65.52958984 7.50615234 63.921875 8.265625 C55.99902891 12.07613669 48.73198878 15.87147873 42.10546875 21.76171875 C43.10126953 21.34599609 43.10126953 21.34599609 44.1171875 20.921875 C45.00019531 20.55964844 45.88320312 20.19742188 46.79296875 19.82421875 C47.66308594 19.46457031 48.53320312 19.10492188 49.4296875 18.734375 C54.50948944 16.88784846 59.02102672 16.64878004 64.41796875 16.69921875 C65.67222656 16.70824219 66.92648438 16.71726562 68.21875 16.7265625 C69.17136719 16.73816406 70.12398438 16.74976562 71.10546875 16.76171875 C72.09546875 18.74171875 72.09546875 18.74171875 73.10546875 20.76171875 C71.45546875 21.09171875 69.80546875 21.42171875 68.10546875 21.76171875 C69.99265625 21.63796875 69.99265625 21.63796875 71.91796875 21.51171875 C78.4774465 22.15828094 81.90205343 27.14511443 85.91796875 31.87890625 C88.10546875 34.76171875 88.10546875 34.76171875 89.10546875 37.76171875 C88.20828125 37.61734375 87.31109375 37.47296875 86.38671875 37.32421875 C66.47388579 34.36197914 48.70890884 35.11348701 30.6640625 44.82421875 C30.06182861 45.14648438 29.45959473 45.46875 28.83911133 45.80078125 C27.18383675 46.7182803 25.5688356 47.70733915 23.95703125 48.69921875 C21.10546875 49.76171875 21.10546875 49.76171875 18.5703125 48.69921875 C17.31927734 47.74015625 17.31927734 47.74015625 16.04296875 46.76171875 C1.31777906 36.47206788 -16.70644377 33.72085461 -34.2890625 36.25 C-36.09829766 36.60603423 -37.90237126 36.99123134 -39.6953125 37.421875 C-42.10004591 37.79347679 -43.57875348 37.40979655 -45.89453125 36.76171875 C-43.91561489 34.6156541 -41.93641026 32.46985661 -39.95703125 30.32421875 C-39.39306641 29.71255859 -38.82910156 29.10089844 -38.24804688 28.47070312 C-37.44077148 27.59575195 -37.44077148 27.59575195 -36.6171875 26.703125 C-36.11968994 26.16373291 -35.62219238 25.62434082 -35.10961914 25.06860352 C-32.12928572 21.8631133 -29.25130055 22.24580423 -24.89453125 21.76171875 C-26.54453125 21.43171875 -28.19453125 21.10171875 -29.89453125 20.76171875 C-28.796875 18.79296875 -28.796875 18.79296875 -26.89453125 16.76171875 C-17.70994303 15.09846443 -9.38503966 17.43094137 -0.89453125 20.76171875 C-0.56453125 20.76171875 -0.23453125 20.76171875 0.10546875 20.76171875 C-7.21718872 14.41144669 -15.30863974 10.11688111 -23.89453125 5.76171875 C-20.10390498 3.23463457 -16.36485621 2.20998474 -12.01953125 0.94921875 C-11.21644531 0.69462891 -10.41335937 0.44003906 -9.5859375 0.17773438 C-3.61796546 -1.5477666 -3.61796546 -1.5477666 0 0 Z " fill="#13737A" transform="translate(66.89453125,60.23828125)"/>
<path d="M0 0 C1.04220703 0.87205078 1.04220703 0.87205078 2.10546875 1.76171875 C3.03359375 2.42171875 3.96171875 3.08171875 4.91796875 3.76171875 C13.15540185 10.80717186 18.19410496 20.86426776 22.10546875 30.76171875 C22.37359375 30.02308594 22.64171875 29.28445312 22.91796875 28.5234375 C25.96472423 20.63594882 29.71727846 14.26404464 35.10546875 7.76171875 C35.77707031 6.81683594 36.44867188 5.87195313 37.140625 4.8984375 C39.72544121 1.82127534 41.34421783 0.24642306 45.10546875 -1.23828125 C52.47874897 -0.93739306 60.50854435 1.46325655 67.10546875 4.76171875 C67.10546875 5.42171875 67.10546875 6.08171875 67.10546875 6.76171875 C66.11289063 7.21160156 65.1203125 7.66148438 64.09765625 8.125 C44.70606892 17.19138387 32.47112472 28.90918195 22.10546875 47.76171875 C19.91184714 45.56809714 19.02619532 43.66765743 17.66796875 40.88671875 C8.56848485 24.05377516 -7.24460271 14.10942883 -23.89453125 5.76171875 C-20.10390498 3.23463457 -16.36485621 2.20998474 -12.01953125 0.94921875 C-11.21644531 0.69462891 -10.41335937 0.44003906 -9.5859375 0.17773438 C-3.61796546 -1.5477666 -3.61796546 -1.5477666 0 0 Z " fill="#4CBEBB" transform="translate(66.89453125,60.23828125)"/>
<path d="M0 0 C0.66 0 1.32 0 2 0 C4.83337468 5.4306348 6.83037283 10.91424261 5 17 C2.58401326 19.66053689 0.07418759 21.75758058 -2.8125 23.89453125 C-5.2279857 25.81301414 -5.2279857 25.81301414 -5.5 28.63671875 C-5.21059821 31.3645894 -5.21059821 31.3645894 -2 33 C-0.68 31.68 0.64 30.36 2 29 C5 30 5 30 6.1875 31.625 C7.38503686 35.12549236 7.55494813 37.30034581 7 41 C5.43519271 43.23842754 3.72619818 45.14766603 1.82421875 47.10546875 C-2.26161619 51.3487877 -3.35368672 53.67233026 -3.5625 59.6875 C-3.63987177 61.79529466 -3.76900193 63.9034732 -4 66 C-4.99 66.495 -4.99 66.495 -6 67 C-6.17015625 66.41992188 -6.3403125 65.83984375 -6.515625 65.2421875 C-7.72804003 61.33408372 -8.7849917 58.30101162 -11.1875 54.9375 C-13.62631632 50.98493561 -13.31555219 48.57550671 -13 44 C-14.60875 43.6596875 -14.60875 43.6596875 -16.25 43.3125 C-20.54651544 41.80871959 -21.81355762 40.95241506 -24 37 C-25.36574171 32.3529308 -25.51947867 28.35430672 -23.5625 23.875 C-19.95261946 17.64424728 -14.25045954 13.73669474 -8.25 10 C-3.93917901 7.24524393 -2.12419952 4.61782505 0 0 Z " fill="#EC9417" transform="translate(94,12)"/>
<path d="M0 0 C0.66 1.32 1.32 2.64 2 4 C0.35 4.33 -1.3 4.66 -3 5 C-1.1128125 4.87625 -1.1128125 4.87625 0.8125 4.75 C7.37197775 5.39656219 10.79658468 10.38339568 14.8125 15.1171875 C17 18 17 18 18 21 C17.01 21 16.02 21 15 21 C15 20.34 15 19.68 15 19 C6.72515044 17.37355766 -1.19890041 16.68773818 -9.625 16.75 C-10.67945313 16.74226563 -11.73390625 16.73453125 -12.8203125 16.7265625 C-22.12459717 16.74959291 -30.25412743 17.61972059 -38.5 22.1875 C-40.30404631 23.18019043 -42.13186683 24.13391927 -44 25 C-44.66 24.67 -45.32 24.34 -46 24 C-34.17959443 6.4669972 -34.17959443 6.4669972 -27 4 C-26.06285156 3.64679688 -25.12570313 3.29359375 -24.16015625 2.9296875 C-15.92677104 0.12639115 -8.66265598 -0.46754965 0 0 Z " fill="#12747C" transform="translate(138,77)"/>
<path d="M0 0 C0.66 1.98 1.32 3.96 2 6 C5.00259517 6.33218192 5.00259517 6.33218192 6.6875 4.5 C7.3371875 3.7575 7.3371875 3.7575 8 3 C11 4 11 4 12.1875 5.625 C13.38503686 9.12549236 13.55494813 11.30034581 13 15 C11.43519271 17.23842754 9.72619818 19.14766603 7.82421875 21.10546875 C3.73838381 25.3487877 2.64631328 27.67233026 2.4375 33.6875 C2.36012823 35.79529466 2.23099807 37.9034732 2 40 C1.01 40.495 1.01 40.495 0 41 C-0.17015625 40.41992188 -0.3403125 39.83984375 -0.515625 39.2421875 C-1.71123178 35.38826353 -2.73734716 32.36307892 -5.125 29.0625 C-7.38209492 25.37591164 -7.59144511 22.64278498 -7.83984375 18.39453125 C-7.94944999 15.82531048 -7.94944999 15.82531048 -8.75 12.6875 C-9.08373909 9.09980479 -8.17755155 7.83081702 -6 5 C-1.33333333 0 -1.33333333 0 0 0 Z " fill="#EE9412" transform="translate(88,38)"/>
<path d="M0 0 C1.98148672 1.70084697 2.83815516 3.1639684 3.8203125 5.5625 C4.17996094 4.81355469 4.53960937 4.06460938 4.91015625 3.29296875 C7.32148173 -0.15389529 9.61715795 -1.28557489 13.3828125 -3.125 C14.53910156 -3.70636719 15.69539063 -4.28773437 16.88671875 -4.88671875 C25.34249339 -8.5114013 34.11753696 -8.77774381 43.1953125 -8.75 C44.24203125 -8.76611328 45.28875 -8.78222656 46.3671875 -8.79882812 C53.90353889 -8.80348019 60.60195273 -7.57295163 67.8203125 -5.4375 C67.8203125 -5.1075 67.8203125 -4.7775 67.8203125 -4.4375 C67.1396875 -4.5096875 66.4590625 -4.581875 65.7578125 -4.65625 C46.36229679 -6.51326746 29.78345834 -5.74116102 12.37890625 3.625 C11.77667236 3.94726562 11.17443848 4.26953125 10.55395508 4.6015625 C8.8986805 5.51906155 7.28367935 6.5081204 5.671875 7.5 C2.8203125 8.5625 2.8203125 8.5625 0.28515625 7.5 C-0.54886719 6.860625 -1.38289063 6.22125 -2.2421875 5.5625 C-15.27705354 -3.54598848 -29.27891291 -5.81069053 -44.8671875 -5.5625 C-45.96224609 -5.55347656 -47.05730469 -5.54445313 -48.18554688 -5.53515625 C-50.85050104 -5.51188154 -53.51496884 -5.47919135 -56.1796875 -5.4375 C-45.07200547 -16.54518203 -11.27899307 -7.03503297 0 0 Z " fill="#074548" transform="translate(85.1796875,101.4375)"/>
<path d="M0 0 C0 1.65 0 3.3 0 5 C-0.99 5.33 -1.98 5.66 -3 6 C-3.66 5.67 -4.32 5.34 -5 5 C-4.67 6.65 -4.34 8.3 -4 10 C-6.475 9.505 -6.475 9.505 -9 9 C-9.33 10.98 -9.66 12.96 -10 15 C-11.65 15 -13.3 15 -15 15 C-15.66 16.32 -16.32 17.64 -17 19 C-21.8 15.67692308 -21.8 15.67692308 -22.8125 12.25 C-22.874375 11.5075 -22.93625 10.765 -23 10 C-16.62113323 4.2590199 -8.71862836 0 0 0 Z " fill="#F1940C" transform="translate(99,21)"/>
<path d="M0 0 C1.25425781 0.00902344 2.50851563 0.01804687 3.80078125 0.02734375 C4.75339844 0.03894531 5.70601562 0.05054687 6.6875 0.0625 C7.3475 1.3825 8.0075 2.7025 8.6875 4.0625 C7.0375 4.3925 5.3875 4.7225 3.6875 5.0625 C4.31398437 5.08828125 4.94046875 5.1140625 5.5859375 5.140625 C6.81183594 5.22570312 6.81183594 5.22570312 8.0625 5.3125 C8.87460938 5.35890625 9.68671875 5.4053125 10.5234375 5.453125 C12.6875 6.0625 12.6875 6.0625 13.9765625 8.109375 C14.21117187 8.75390625 14.44578125 9.3984375 14.6875 10.0625 C13.6975 9.7325 12.7075 9.4025 11.6875 9.0625 C8.65281126 8.99420883 5.63229915 9.0648336 2.59765625 9.125 C0.06986801 9.07071193 -1.89321375 8.69117763 -4.3125 8.0625 C-4.6425 8.3925 -4.9725 8.7225 -5.3125 9.0625 C-7.375 8.625 -7.375 8.625 -9.3125 8.0625 C-8.6525 6.0825 -7.9925 4.1025 -7.3125 2.0625 C-8.9625 2.0625 -10.6125 2.0625 -12.3125 2.0625 C-12.3125 1.7325 -12.3125 1.4025 -12.3125 1.0625 C-8.15623632 0.05323521 -4.26884906 -0.03989579 0 0 Z " fill="#1A6F75" transform="translate(131.3125,76.9375)"/>
<path d="M0 0 C1.12975833 3.31395777 2.17884773 6.59702663 3 10 C1.71064081 11.14842923 0.41843421 12.29366227 -0.875 13.4375 C-1.95394531 14.39462891 -1.95394531 14.39462891 -3.0546875 15.37109375 C-5 17 -5 17 -7 18 C-8.75545249 15.41845222 -9.00283022 13.84999829 -9.0625 10.6875 C-8.08749272 7.30365121 -4.3598568 0 0 0 Z " fill="#B84304" transform="translate(88,38)"/>
<path d="M0 0 C0.66 0 1.32 0 2 0 C2.99 2.97 3.98 5.94 5 9 C0.42645698 10.90564292 0.42645698 10.90564292 -1.80078125 11.3984375 C-9.5292996 13.51245495 -16.53368584 17.30052876 -21 24 C-21.66 23.67 -22.32 23.34 -23 23 C-19.34906781 18.09731963 -15.47985949 14.82505328 -10.375 11.5 C-5.41478493 8.25470124 -2.25157556 5.5696869 0 0 Z " fill="#E6951E" transform="translate(94,12)"/>
<path d="M0 0 C1.1055189 0.93590504 2.20935453 1.87379858 3.3125 2.8125 C4.23482422 3.59560547 4.23482422 3.59560547 5.17578125 4.39453125 C8.51952278 7.3373102 8.51952278 7.3373102 10 9 C10 9.66 10 10.32 10 11 C9.01 11 8.02 11 7 11 C7 10.34 7 9.68 7 9 C-4.52201772 6.44781113 -16.25018212 6.36736848 -28 6 C-28 5.67 -28 5.34 -28 5 C-27.40461426 4.98541748 -26.80922852 4.97083496 -26.19580078 4.95581055 C-23.50486949 4.88145656 -20.81519667 4.78475813 -18.125 4.6875 C-16.71927734 4.65366211 -16.71927734 4.65366211 -15.28515625 4.61914062 C-14.38925781 4.58369141 -13.49335938 4.54824219 -12.5703125 4.51171875 C-11.74289551 4.48553467 -10.91547852 4.45935059 -10.06298828 4.43237305 C-7.60672068 4.16903363 -7.60672068 4.16903363 -6 1 C-5.01 1.33 -4.02 1.66 -3 2 C-2.01 1.34 -1.02 0.68 0 0 Z " fill="#156C72" transform="translate(146,87)"/>
<path d="M0 0 C1.65 0 3.3 0 5 0 C4.360625 0.721875 3.72125 1.44375 3.0625 2.1875 C0.12386963 6.45624728 0.42100452 11.24657678 0.2734375 16.26953125 C0.18320313 17.17058594 0.09296875 18.07164063 0 19 C-0.66 19.33 -1.32 19.66 -2 20 C-3.33333333 16 -4.66666667 12 -6 8 C-5.01 7.34 -4.02 6.68 -3 6 C-3 5.01 -3 4.02 -3 3 C-2.01 2.67 -1.02 2.34 0 2 C0 1.34 0 0.68 0 0 Z " fill="#E4941D" transform="translate(90,59)"/>
<path d="M0 0 C1.84271484 0.04253906 1.84271484 0.04253906 3.72265625 0.0859375 C5.56150391 0.10527344 5.56150391 0.10527344 7.4375 0.125 C10.48390781 0.4307072 12.22810838 0.85877718 14.78515625 2.4609375 C12.14515625 2.4609375 9.50515625 2.4609375 6.78515625 2.4609375 C6.78515625 3.1209375 6.78515625 3.7809375 6.78515625 4.4609375 C-1.64341518 5.74665179 -1.64341518 5.74665179 -6.21484375 4.4609375 C-4.4647581 1.217189 -3.73171153 0.53504491 0 0 Z " fill="#1C6D74" transform="translate(43.21484375,76.5390625)"/>
<path d="M0 0 C2.97 0.495 2.97 0.495 6 1 C6 1.66 6 2.32 6 3 C3.37964982 4.36389525 0.75443001 5.71632173 -1.875 7.0625 C-2.99455078 7.64741211 -2.99455078 7.64741211 -4.13671875 8.24414062 C-5.20986328 8.79038086 -5.20986328 8.79038086 -6.3046875 9.34765625 C-7.2944458 9.85824585 -7.2944458 9.85824585 -8.30419922 10.37915039 C-8.86381348 10.58403076 -9.42342773 10.78891113 -10 11 C-10.66 10.67 -11.32 10.34 -12 10 C-12 8.68 -12 7.36 -12 6 C-9.03 6.495 -9.03 6.495 -6 7 C-5.67 5.35 -5.34 3.7 -5 2 C-4.01 2 -3.02 2 -2 2 C-2 2.66 -2 3.32 -2 4 C-1.34 3.67 -0.68 3.34 0 3 C0 2.01 0 1.02 0 0 Z " fill="#52B9B7" transform="translate(128,64)"/>
<path d="M0 0 C0 3 0 3 -1 6 C-0.34 6.33 0.32 6.66 1 7 C0.01 8.485 0.01 8.485 -1 10 C-1.66 10 -2.32 10 -3 10 C-3 10.66 -3 11.32 -3 12 C-5.64 12.33 -8.28 12.66 -11 13 C-7.61227103 8.30840284 -4.21814817 3.9700218 0 0 Z " fill="#1D6D74" transform="translate(32,85)"/>
<path d="M0 0 C1.78547548 2.19126536 3.01715957 4.04340363 4.0625 6.6875 C4.76803846 9.15938605 4.76803846 9.15938605 7 10 C4.36 11.65 1.72 13.3 -1 15 C-0.87431641 13.96939453 -0.87431641 13.96939453 -0.74609375 12.91796875 C-0.64425781 12.01691406 -0.54242188 11.11585937 -0.4375 10.1875 C-0.33308594 9.29417969 -0.22867188 8.40085937 -0.12109375 7.48046875 C0.15658709 4.86624428 0.15658709 4.86624428 -1 2 C-0.67 1.34 -0.34 0.68 0 0 Z " fill="#52BAB6" transform="translate(84,82)"/>
<path d="M0 0 C2.97 0.33 5.94 0.66 9 1 C6.5129261 2.65804926 4.02682498 4.19874478 1.4375 5.6875 C0.65246094 6.14511719 -0.13257812 6.60273437 -0.94140625 7.07421875 C-1.62074219 7.37972656 -2.30007812 7.68523437 -3 8 C-3.66 7.67 -4.32 7.34 -5 7 C-3.35 4.69 -1.7 2.38 0 0 Z " fill="#117276" transform="translate(97,94)"/>
<path d="M0 0 C0 0.33 0 0.66 0 1 C-1.12019531 0.9278125 -2.24039063 0.855625 -3.39453125 0.78125 C-4.86718434 0.68745044 -6.33984077 0.59370317 -7.8125 0.5 C-8.55048828 0.45230469 -9.28847656 0.40460937 -10.04882812 0.35546875 C-13.03824588 0.16609387 -16.00374574 0 -19 0 C-19.33 0.99 -19.66 1.98 -20 3 C-20.99 2.67 -21.98 2.34 -23 2 C-16.93741125 -7.09388312 -8.68603371 -2.89882038 0 0 Z " fill="#58B1AD" transform="translate(128,63)"/>
<path d="M0 0 C2.62748631 0.05985162 5.24916995 0.14676224 7.875 0.25 C8.62136719 0.26417969 9.36773437 0.27835937 10.13671875 0.29296875 C12.3046875 0.390625 12.3046875 0.390625 16 1 C17.5078125 3.046875 17.5078125 3.046875 18 5 C17.01 4.67 16.02 4.34 15 4 C13.37498083 3.98072011 11.74914165 4.00572909 10.125 4.0625 C6.28158166 4.11307129 3.46062176 3.84566494 0 2 C0 1.34 0 0.68 0 0 Z " fill="#21696C" transform="translate(128,82)"/>
<path d="M0 0 C0.66 0 1.32 0 2 0 C2.99 2.97 3.98 5.94 5 9 C4.34 9 3.68 9 3 9 C3 7.68 3 6.36 3 5 C1.35 6.32 -0.3 7.64 -2 9 C-2.66 8.34 -3.32 7.68 -4 7 C-2.68 4.69 -1.36 2.38 0 0 Z " fill="#E39B2E" transform="translate(94,12)"/>
<path d="M0 0 C2 2 2 2 2.4375 5.25 C1.8694211 10.11924775 0.36384471 11.55205917 -3 15 C-5 12 -5 12 -5 10 C-3.35 10 -1.7 10 0 10 C-0.2784375 8.9171875 -0.2784375 8.9171875 -0.5625 7.8125 C-1.01995307 4.87173027 -0.73516357 2.85896942 0 0 Z " fill="#E0952B" transform="translate(99,44)"/>
<path d="M0 0 C1.9375 0.8125 1.9375 0.8125 4 2 C5 5 5 5 4.0625 7.1875 C3.5365625 8.0846875 3.5365625 8.0846875 3 9 C2.01 9 1.02 9 0 9 C-1.125 2.25 -1.125 2.25 0 0 Z " fill="#50BCB8" transform="translate(74,69)"/>
<path d="M0 0 C0.33 0.66 0.66 1.32 1 2 C0.54625 2.556875 0.0925 3.11375 -0.375 3.6875 C-2.11050352 5.94954292 -2.11050352 5.94954292 -3 8.6875 C-3.33 9.450625 -3.66 10.21375 -4 11 C-4.99 11.33 -5.98 11.66 -7 12 C-5.44298069 7.32894208 -2.91552627 3.91294315 0 0 Z " fill="#5AB3AC" transform="translate(101,69)"/>
<path d="M0 0 C0.66 0.33 1.32 0.66 2 1 C1.88655624 3.1464753 1.75893655 5.29220592 1.625 7.4375 C1.52058594 9.22994141 1.52058594 9.22994141 1.4140625 11.05859375 C1.27742188 12.02925781 1.14078125 12.99992187 1 14 C0.01 14.495 0.01 14.495 -1 15 C-1.33 12.69 -1.66 10.38 -2 8 C-1.34 8 -0.68 8 0 8 C0 5.36 0 2.72 0 0 Z " fill="#C4984B" transform="translate(89,64)"/>
<path d="M0 0 C1.65 0 3.3 0 5 0 C4.65120368 3.25543229 3.97866739 4.01873107 1.4375 6.25 C0.633125 6.8275 -0.17125 7.405 -1 8 C-1 7.01 -1 6.02 -1 5 C-0.34 5 0.32 5 1 5 C0.67 3.35 0.34 1.7 0 0 Z " fill="#E39727" transform="translate(94,26)"/>
<path d="M0 0 C0.66 0.33 1.32 0.66 2 1 C1.01 1.33 0.02 1.66 -1 2 C-1 2.99 -1 3.98 -1 5 C-2.98 5.99 -4.96 6.98 -7 8 C-6.01347016 4.68167234 -5.31268497 3.23451373 -2.5 1.125 C-1.675 0.75375 -0.85 0.3825 0 0 Z " fill="#014749" transform="translate(97,99)"/>
<path d="M0 0 C3 1 3 1 4.1875 2.875 C5 5 5 5 5 8 C2.21611025 6.29374499 1.14615794 5.52373261 0.25 2.3125 C0.1675 1.549375 0.085 0.78625 0 0 Z " fill="#08504E" transform="translate(84,102)"/>
<path d="M0 0 C2.97 0.33 5.94 0.66 9 1 C8.34 2.65 7.68 4.3 7 6 C1.125 2.25 1.125 2.25 0 0 Z " fill="#51B2B5" transform="translate(64,77)"/>
<path d="M0 0 C0.99 0.33 1.98 0.66 3 1 C2.67 1.66 2.34 2.32 2 3 C1.01 3.33 0.02 3.66 -1 4 C-2.20882096 6.00016466 -2.20882096 6.00016466 -3 8 C-3.66 7.67 -4.32 7.34 -5 7 C-3.70700306 4.11562221 -2.34058637 2.12780579 0 0 Z " fill="#DF902D" transform="translate(96,41)"/>
<path d="M0 0 C2.97 0.495 2.97 0.495 6 1 C6 1.66 6 2.32 6 3 C3.69 3.66 1.38 4.32 -1 5 C-0.67 3.35 -0.34 1.7 0 0 Z " fill="#53A9A8" transform="translate(128,64)"/>
<path d="M0 0 C0.66 0.33 1.32 0.66 2 1 C2 1.66 2 2.32 2 3 C3.32 3.66 4.64 4.32 6 5 C5.01 5.495 5.01 5.495 4 6 C1.5249829 4.88568235 -0.67883419 3.41849022 -3 2 C-2.01 1.34 -1.02 0.68 0 0 Z " fill="#093938" transform="translate(80,101)"/>
<path d="M0 0 C0.33 0.99 0.66 1.98 1 3 C1.99 3.66 2.98 4.32 4 5 C1.36 5.33 -1.28 5.66 -4 6 C-2.68 4.02 -1.36 2.04 0 0 Z " fill="#1C5658" transform="translate(25,92)"/>
<path d="" fill="#FFFFFF" transform="translate(0,0)"/>
<path d="" fill="#FFFFFF" transform="translate(0,0)"/>
<path d="" fill="#FFFFFF" transform="translate(0,0)"/>
<path d="" fill="#FFFFFF" transform="translate(0,0)"/>
<path d="" fill="#FFFFFF" transform="translate(0,0)"/>
<path d="" fill="#FFFFFF" transform="translate(0,0)"/>
<path d="" fill="#FFFFFF" transform="translate(0,0)"/>
<path d="" fill="#FFFFFF" transform="translate(0,0)"/>
<path d="" fill="#FFFFFF" transform="translate(0,0)"/>
<path d="" fill="#FFFFFF" transform="translate(0,0)"/>
<path d="" fill="#FFFFFF" transform="translate(0,0)"/>
<path d="" fill="#FFFFFF" transform="translate(0,0)"/>
<path d="" fill="#FFFFFF" transform="translate(0,0)"/>
<path d="" fill="#FFFFFF" transform="translate(0,0)"/>
<path d="" fill="#FFFFFF" transform="translate(0,0)"/>
<path d="" fill="#FFFFFF" transform="translate(0,0)"/>
<path d="" fill="#FFFFFF" transform="translate(0,0)"/>
<path d="" fill="#FFFFFF" transform="translate(0,0)"/>
<path d="" fill="#FFFFFF" transform="translate(0,0)"/>
<path d="" fill="#FFFFFF" transform="translate(0,0)"/>
<path d="" fill="#FFFFFF" transform="translate(0,0)"/>
<path d="" fill="#FFFFFF" transform="translate(0,0)"/>
<path d="" fill="#FFFFFF" transform="translate(0,0)"/>
<path d="" fill="#FFFFFF" transform="translate(0,0)"/>
<path d="" fill="#FFFFFF" transform="translate(0,0)"/>
<path d="" fill="#FFFFFF" transform="translate(0,0)"/>
<path d="" fill="#FFFFFE" transform="translate(0,0)"/>
<path d="" fill="#FFFFFF" transform="translate(0,0)"/>
<path d="" fill="#FFFFFF" transform="translate(0,0)"/>
<path d="" fill="#FFFFFF" transform="translate(0,0)"/>
<path d="" fill="#FFFFFF" transform="translate(0,0)"/>
<path d="" fill="#FFFFFF" transform="translate(0,0)"/>
<path d="" fill="#FFFFFF" transform="translate(0,0)"/>
<path d="" fill="#FFFFFF" transform="translate(0,0)"/>
<path d="" fill="#FFFFFF" transform="translate(0,0)"/>
<path d="" fill="#FFFFFF" transform="translate(0,0)"/>
<path d="" fill="#FFFFFF" transform="translate(0,0)"/>
<path d="" fill="#FFFFFF" transform="translate(0,0)"/>
<path d="" fill="#FFFFFF" transform="translate(0,0)"/>
<path d="" fill="#FFFFFF" transform="translate(0,0)"/>
<path d="" fill="#FFFFFF" transform="translate(0,0)"/>
<path d="" fill="#FFFFFF" transform="translate(0,0)"/>
<path d="" fill="#FFFFFF" transform="translate(0,0)"/>
<path d="" fill="#FFFFFF" transform="translate(0,0)"/>
<path d="" fill="#FFFFFF" transform="translate(0,0)"/>
<path d="" fill="#FFFFFF" transform="translate(0,0)"/>
<path d="" fill="#FFFFFF" transform="translate(0,0)"/>
<path d="" fill="#FFFFFF" transform="translate(0,0)"/>
<path d="" fill="#FFFFFF" transform="translate(0,0)"/>
<path d="" fill="#FFFF00" transform="translate(0,0)"/>
<path d="" fill="#FFFFFF" transform="translate(0,0)"/>
<path d="" fill="#FFFFFF" transform="translate(0,0)"/>
<path d="" fill="#FFFFFF" transform="translate(0,0)"/>
<path d="" fill="#FFFFFF" transform="translate(0,0)"/>
<path d="" fill="#FFFFFF" transform="translate(0,0)"/>
<path d="" fill="#FFFFFF" transform="translate(0,0)"/>
<path d="" fill="#FFFFFF" transform="translate(0,0)"/>
<path d="" fill="#FFFFFF" transform="translate(0,0)"/>
<path d="" fill="#FFFFFF" transform="translate(0,0)"/>
</svg>
